<svg width="1000" height="1000" viewBox="0 0 1000 1000" xmlns="http://www.w3.org/2000/svg"><defs/><path fill="#ec9924" transform="matrix(0.5602086432116238 0 0 0.5602086432116238 7.059530859167015 -62.174920448980764)" d="M 272.09777253748 1154.33167975596 C 307.19777253748 1234.35867975596 391.13077253748 1231.60267975596 489.10277253748 1231.60267975596 C 587.07977253748 1231.60267975596 671.01077253748 1234.35867975596 706.11077253748 1154.33167975596 C 714.90777253748 1134.27467975596 700.47077253748 1116.64267975596 678.56977253748 1116.64267975596 L 299.63677253748 1116.64267975596 C 277.73577253748 1116.64167975596 263.29877253748 1134.27467975596 272.09777253748 1154.33167975596 Z"/><path fill="#ec9924" transform="matrix(0.5602086432116238 0 0 0.5602086432116238 7.059530859167015 -62.174920448980764)" d="M 706.59777253748 923.23267975596 C 671.79177253748 836.55267975596 587.53677253748 775.40567975596 489.10677253748 775.40567975596 C 390.67677253748 775.40567975596 306.41877253748 836.55267975596 271.60977253748 923.23167975596 C 263.44977253748 943.55767975596 277.73477253748 961.09767975596 299.63577253748 961.09767975596 L 678.56877253748 961.09767975596 C 700.47077253748 961.09767975596 714.75677253748 943.55767975596 706.59777253748 923.23267975596 Z"/><path fill="#bd632f" transform="matrix(0.5602086432116238 0 0 0.5602086432116238 7.059530859167015 -62.174920448980764)" d="M 687.36377253748 979.10567975596 L 470.88477253748 979.10567975596 L 330.74377253748 1019.62467975596 L 313.26377253748 979.10567975596 L 290.84277253748 979.10567975596 C 271.13177253748 979.10567975596 255.15577253748 995.08167975596 255.15577253748 1014.79267975596 C 255.15577253748 1034.50367975596 271.13177253748 1050.48167975596 290.84277253748 1050.48167975596 L 687.36377253748 1050.48167975596 C 707.07377253748 1050.48167975596 723.05177253748 1034.50267975596 723.05177253748 1014.79267975596 C 723.05177253748 995.08267975596 707.07377253748 979.10567975596 687.36377253748 979.10567975596 Z"/><path fill="#bd632f" transform="matrix(0.5602086432116238 0 0 0.5602086432116238 7.059530859167015 -62.174920448980764)" d="M 699.42277253748 1105.90067975596 C 680.52277253748 1105.90067975596 670.49977253748 1098.06167975596 662.44577253748 1091.76267975596 C 655.49677253748 1086.32667975596 650.47477253748 1082.40067975596 639.32777253748 1082.40067975596 C 628.18077253748 1082.40067975596 623.15977253748 1086.32767975596 616.20977253748 1091.76267975596 C 608.15577253748 1098.06167975596 598.13377253748 1105.90067975596 579.23277253748 1105.90067975596 C 560.33377253748 1105.90067975596 550.31077253748 1098.06167975596 542.25677253748 1091.76267975596 C 535.30877253748 1086.32667975596 530.28677253748 1082.40067975596 519.14077253748 1082.40067975596 C 507.99477253748 1082.40067975596 502.97377253748 1086.32767975596 496.02577253748 1091.76267975596 C 487.97277253748 1098.06167975596 477.94977253748 1105.90067975596 459.05077253748 1105.90067975596 C 440.15277253748 1105.90067975596 430.13077253748 1098.06167975596 422.07777253748 1091.76267975596 C 415.12977253748 1086.32667975596 410.10977253748 1082.40067975596 398.96377253748 1082.40067975596 C 387.81777253748 1082.40067975596 382.79677253748 1086.32767975596 375.84777253748 1091.76267975596 C 367.79477253748 1098.06167975596 357.77177253748 1105.90067975596 338.87377253748 1105.90067975596 C 319.97477253748 1105.90067975596 309.95277253748 1098.06167975596 301.89877253748 1091.76267975596 C 294.94977253748 1086.32667975596 289.92977253748 1082.40067975596 278.78277253748 1082.40067975596 C 272.57177253748 1082.40067975596 267.53577253748 1077.36567975596 267.53577253748 1071.15367975596 C 267.53577253748 1064.94167975596 272.57177253748 1059.90667975596 278.78277253748 1059.90667975596 C 297.68077253748 1059.90667975596 307.70377253748 1067.74567975596 315.75677253748 1074.04467975596 C 322.70577253748 1079.48067975596 327.72677253748 1083.40667975596 338.87277253748 1083.40667975596 C 350.01877253748 1083.40667975596 355.03977253748 1079.47967975596 361.98877253748 1074.04467975596 C 370.04177253748 1067.74567975596 380.06477253748 1059.90667975596 398.96277253748 1059.90667975596 C 417.86077253748 1059.90667975596 427.88277253748 1067.74567975596 435.93577253748 1074.04467975596 C 442.88377253748 1079.48067975596 447.90377253748 1083.40667975596 459.04977253748 1083.40667975596 C 470.19577253748 1083.40667975596 475.21677253748 1079.47967975596 482.16577253748 1074.04467975596 C 490.21877253748 1067.74567975596 500.24077253748 1059.90667975596 519.13977253748 1059.90667975596 C 538.03877253748 1059.90667975596 548.06177253748 1067.74567975596 556.11477253748 1074.04467975596 C 563.06377253748 1079.48067975596 568.08577253748 1083.40667975596 579.23177253748 1083.40667975596 C 590.37977253748 1083.40667975596 595.40077253748 1079.47867975596 602.35077253748 1074.04467975596 C 610.40477253748 1067.74567975596 620.42677253748 1059.90667975596 639.32677253748 1059.90667975596 C 658.22677253748 1059.90667975596 668.24877253748 1067.74567975596 676.30277253748 1074.04467975596 C 683.25277253748 1079.47967975596 688.27377253748 1083.40667975596 699.42177253748 1083.40667975596 C 705.63377253748 1083.40667975596 710.66877253748 1088.44167975596 710.66877253748 1094.65367975596 C 710.66877253748 1100.86567975596 705.63477253748 1105.90067975596 699.42277253748 1105.90067975596 Z"/><path id="text" fill="#010101" transform="matrix(1.1539694106190284 0 0 1.1539694106190284 290.4311543425625 21.62546490488404)" d="M 125.48386714811 446.65898078912 C 122.79586714811 444.09898078912 121.45186714811 440.51498078912 121.45186714811 435.90698078912 L 121.45186714811 397.50698078912 C 121.45186714811 393.02698078912 122.74786714811 389.53898078912 125.33986714811 387.04298078912 C 127.93186714811 384.54698078912 131.53186714811 383.29898078912 136.13986714811 383.29898078912 L 158.31586714811 383.29898078912 C 165.73986714811 383.29898078912 171.46786714811 384.86698078912 175.49986714811 388.00298078912 C 179.53186714811 391.13898078912 181.54786714811 395.68298078912 181.54786714811 401.63498078912 C 181.54786714811 404.57898078912 180.68386714811 407.31498078912 178.95586714811 409.84298078912 C 177.22786714811 412.37098078912 174.98786714811 414.27498078912 172.23586714811 415.55498078912 L 172.23586714811 415.65098078912 C 175.30786714811 416.86698078912 177.81986714811 418.80298078912 179.77186714811 421.45898078912 C 181.72386714811 424.11498078912 182.69986714811 426.97898078912 182.69986714811 430.05098078912 C 182.69986714811 436.45098078912 180.63586714811 441.45898078912 176.50786714811 445.07498078912 C 172.37986714811 448.69098078912 166.69986714811 450.49898078912 159.46786714811 450.49898078912 L 136.81186714811 450.49898078912 C 131.94786714811 450.49898078912 128.17186714811 449.21898078912 125.48386714811 446.65898078912 Z M 158.31586714811 411.04298078912 C 161.57986714811 411.04298078912 164.12386714811 410.24298078912 165.94786714811 408.64298078912 C 167.77186714811 407.04298078912 168.68386714811 404.73898078912 168.68386714811 401.73098078912 C 168.68386714811 398.78698078912 167.81986714811 396.61098078912 166.09186714811 395.20298078912 C 164.36386714811 393.79498078912 161.77186714811 393.09098078912 158.31586714811 393.09098078912 L 138.15586714811 393.09098078912 C 136.87586714811 393.09098078912 135.86786714811 393.50698078912 135.13186714811 394.33898078912 C 134.39586714811 395.17098078912 134.02786714811 396.32298078912 134.02786714811 397.79498078912 L 134.02786714811 411.04298078912 L 158.31586714811 411.04298078912 Z M 158.31586714811 440.70698078912 C 165.99586714811 440.70698078912 169.83586714811 437.21898078912 169.83586714811 430.24298078912 C 169.83586714811 427.23498078912 168.82786714811 424.89898078912 166.81186714811 423.23498078912 C 164.79586714811 421.57098078912 161.96386714811 420.73898078912 158.31586714811 420.73898078912 L 134.02786714811 420.73898078912 L 134.02786714811 436.00298078912 C 134.02786714811 437.47498078912 134.39586714811 438.62698078912 135.13186714811 439.45898078912 C 135.86786714811 440.29098078912 136.87586714811 440.70698078912 138.15586714811 440.70698078912 L 158.31586714811 440.70698078912 Z M 200.21986714811 449.44298078912 C 197.17986714811 448.09898078912 194.81186714811 446.22698078912 193.11586714811 443.82698078912 C 191.41986714811 441.42698078912 190.57186714811 438.65898078912 190.57186714811 435.52298078912 C 190.57186714811 430.78698078912 192.53986714811 427.01098078912 196.47586714811 424.19498078912 C 200.41186714811 421.37898078912 205.73986714811 419.97098078912 212.45986714811 419.97098078912 C 218.28386714811 419.97098078912 222.95586714811 421.21898078912 226.47586714811 423.71498078912 L 226.47586714811 421.41098078912 C 226.47586714811 418.40298078912 225.54786714811 416.09898078912 223.69186714811 414.49898078912 C 221.83586714811 412.89898078912 219.14786714811 412.09898078912 215.62786714811 412.09898078912 C 210.37986714811 412.09898078912 205.86786714811 413.21898078912 202.09186714811 415.45898078912 C 200.49186714811 416.35498078912 199.11586714811 416.80298078912 197.96386714811 416.80298078912 C 196.55586714811 416.80298078912 195.30786714811 416.16298078912 194.21986714811 414.88298078912 C 193.51586714811 413.98698078912 193.16386714811 413.05898078912 193.16386714811 412.09898078912 C 193.16386714811 410.49898078912 193.99586714811 409.09098078912 195.65986714811 407.87498078912 C 197.96386714811 406.21098078912 200.87586714811 404.89898078912 204.39586714811 403.93898078912 C 207.91586714811 402.97898078912 211.62786714811 402.49898078912 215.53186714811 402.49898078912 C 222.95586714811 402.49898078912 228.79586714811 404.17898078912 233.05186714811 407.53898078912 C 237.30786714811 410.89898078912 239.43586714811 415.52298078912 239.43586714811 421.41098078912 L 239.43586714811 446.08298078912 C 239.43586714811 447.74698078912 238.87586714811 449.05898078912 237.75586714811 450.01898078912 C 236.63586714811 450.97898078912 235.11586714811 451.45898078912 233.19586714811 451.45898078912 C 231.21186714811 451.45898078912 229.67586714811 451.01098078912 228.58786714811 450.11498078912 C 227.49986714811 449.21898078912 226.95586714811 447.93898078912 226.95586714811 446.27498078912 L 226.95586714811 445.21898078912 C 223.30786714811 449.37898078912 217.89986714811 451.45898078912 210.73186714811 451.45898078912 C 206.76386714811 451.45898078912 203.25986714811 450.78698078912 200.21986714811 449.44298078912 Z M 223.16386714811 440.75498078912 C 225.43586714811 439.50698078912 226.57186714811 437.76298078912 226.57186714811 435.52298078912 C 226.57186714811 433.41098078912 225.41986714811 431.71498078912 223.11586714811 430.43498078912 C 220.81186714811 429.15498078912 217.73986714811 428.51498078912 213.89986714811 428.51498078912 C 210.44386714811 428.51498078912 207.77186714811 429.12298078912 205.88386714811 430.33898078912 C 203.99586714811 431.55498078912 203.05186714811 433.28298078912 203.05186714811 435.52298078912 C 203.05186714811 437.76298078912 203.97986714811 439.50698078912 205.83586714811 440.75498078912 C 207.69186714811 442.00298078912 210.31586714811 442.62698078912 213.70786714811 442.62698078912 C 217.73986714811 442.62698078912 220.89186714811 442.00298078912 223.16386714811 440.75498078912 Z M 253.93186714811 444.97898078912 C 249.19586714811 440.65898078912 246.82786714811 434.62698078912 246.82786714811 426.88298078912 C 246.82786714811 419.13898078912 249.19586714811 413.13898078912 253.93186714811 408.88298078912 C 258.66786714811 404.62698078912 265.32386714811 402.49898078912 273.89986714811 402.49898078912 C 278.44386714811 402.49898078912 282.55586714811 403.25098078912 286.23586714811 404.75498078912 C 289.91586714811 406.25898078912 292.81186714811 408.38698078912 294.92386714811 411.13898078912 C 295.69186714811 412.09898078912 296.07586714811 413.12298078912 296.07586714811 414.21098078912 C 296.07586714811 415.87498078912 295.21186714811 417.34698078912 293.48386714811 418.62698078912 C 292.71586714811 419.20298078912 291.75586714811 419.49098078912 290.60386714811 419.49098078912 C 289.70786714811 419.49098078912 288.77986714811 419.28298078912 287.81986714811 418.86698078912 C 286.85986714811 418.45098078912 286.02786714811 417.85898078912 285.32386714811 417.09098078912 C 284.04386714811 415.61898078912 282.39586714811 414.48298078912 280.37986714811 413.68298078912 C 278.36386714811 412.88298078912 276.20386714811 412.48298078912 273.89986714811 412.48298078912 C 269.35586714811 412.48298078912 265.81986714811 413.74698078912 263.29186714811 416.27498078912 C 260.76386714811 418.80298078912 259.49986714811 422.33898078912 259.49986714811 426.88298078912 C 259.49986714811 431.55498078912 260.76386714811 435.15498078912 263.29186714811 437.68298078912 C 265.81986714811 440.21098078912 269.35586714811 441.47498078912 273.89986714811 441.47498078912 C 278.95586714811 441.47498078912 283.27586714811 439.77898078912 286.85986714811 436.38698078912 C 288.65186714811 434.59498078912 290.41186714811 433.69898078912 292.13986714811 433.69898078912 C 293.29186714811 433.69898078912 294.34786714811 434.08298078912 295.30786714811 434.85098078912 C 296.84386714811 436.06698078912 297.61186714811 437.53898078912 297.61186714811 439.26698078912 C 297.61186714811 440.35498078912 297.16386714811 441.41098078912 296.26786714811 442.43498078912 C 293.32386714811 445.57098078912 290.04386714811 447.85898078912 286.42786714811 449.29898078912 C 282.81186714811 450.73898078912 278.63586714811 451.45898078912 273.89986714811 451.45898078912 C 265.32386714811 451.45898078912 258.66786714811 449.29898078912 253.93186714811 444.97898078912 Z M 318.29986714811 448.43498078912 C 313.97986714811 446.41898078912 310.60386714811 443.55498078912 308.17186714811 439.84298078912 C 305.73986714811 436.13098078912 304.52386714811 431.84298078912 304.52386714811 426.97898078912 C 304.52386714811 422.11498078912 305.73986714811 417.82698078912 308.17186714811 414.11498078912 C 310.60386714811 410.40298078912 313.97986714811 407.53898078912 318.29986714811 405.52298078912 C 322.61986714811 403.50698078912 327.56386714811 402.49898078912 333.13186714811 402.49898078912 C 338.69986714811 402.49898078912 343.64386714811 403.50698078912 347.96386714811 405.52298078912 C 352.28386714811 407.53898078912 355.65986714811 410.40298078912 358.09186714811 414.11498078912 C 360.52386714811 417.82698078912 361.73986714811 422.11498078912 361.73986714811 426.97898078912 C 361.73986714811 431.84298078912 360.52386714811 436.13098078912 358.09186714811 439.84298078912 C 355.65986714811 443.55498078912 352.28386714811 446.41898078912 347.96386714811 448.43498078912 C 343.64386714811 450.45098078912 338.69986714811 451.45898078912 333.13186714811 451.45898078912 C 327.56386714811 451.45898078912 322.61986714811 450.45098078912 318.29986714811 448.43498078912 Z M 344.79586714811 437.63498078912 C 347.64386714811 435.07498078912 349.06786714811 431.52298078912 349.06786714811 426.97898078912 C 349.06786714811 422.43498078912 347.64386714811 418.88298078912 344.79586714811 416.32298078912 C 341.94786714811 413.76298078912 338.05986714811 412.48298078912 333.13186714811 412.48298078912 C 328.20386714811 412.48298078912 324.31586714811 413.76298078912 321.46786714811 416.32298078912 C 318.61986714811 418.88298078912 317.19586714811 422.43498078912 317.19586714811 426.97898078912 C 317.19586714811 431.52298078912 318.61986714811 435.07498078912 321.46786714811 437.63498078912 C 324.31586714811 440.19498078912 328.20386714811 441.47498078912 333.13186714811 441.47498078912 C 338.05986714811 441.47498078912 341.94786714811 440.19498078912 344.79586714811 437.63498078912 Z M 380.98786714811 448.53098078912 C 377.11586714811 446.57898078912 374.09186714811 443.74698078912 371.91586714811 440.03498078912 C 369.73986714811 436.32298078912 368.65186714811 431.97098078912 368.65186714811 426.97898078912 C 368.65186714811 421.98698078912 369.69186714811 417.65098078912 371.77186714811 413.97098078912 C 373.85186714811 410.29098078912 376.84386714811 407.45898078912 380.74786714811 405.47498078912 C 384.65186714811 403.49098078912 389.25986714811 402.49898078912 394.57186714811 402.49898078912 C 398.47586714811 402.49898078912 401.77186714811 403.12298078912 404.45986714811 404.37098078912 C 407.14786714811 405.61898078912 409.67586714811 407.49098078912 412.04386714811 409.98698078912 L 412.13986714811 383.39498078912 C 412.13986714811 381.60298078912 412.71586714811 380.19498078912 413.86786714811 379.17098078912 C 415.01986714811 378.14698078912 416.55586714811 377.63498078912 418.47586714811 377.63498078912 C 420.39586714811 377.63498078912 421.91586714811 378.13098078912 423.03586714811 379.12298078912 C 424.15586714811 380.11498078912 424.71586714811 381.53898078912 424.71586714811 383.39498078912 L 424.71586714811 445.69898078912 C 424.71586714811 447.55498078912 424.15586714811 448.97898078912 423.03586714811 449.97098078912 C 421.91586714811 450.96298078912 420.39586714811 451.45898078912 418.47586714811 451.45898078912 C 416.55586714811 451.45898078912 415.01986714811 450.94698078912 413.86786714811 449.92298078912 C 412.71586714811 448.89898078912 412.13986714811 447.49098078912 412.13986714811 445.69898078912 L 412.13986714811 443.77898078912 C 407.85186714811 448.89898078912 401.89986714811 451.45898078912 394.28386714811 451.45898078912 C 389.29186714811 451.45898078912 384.85986714811 450.48298078912 380.98786714811 448.53098078912 Z M 407.91586714811 437.63498078912 C 410.73186714811 435.07498078912 412.13986714811 431.52298078912 412.13986714811 426.97898078912 C 412.13986714811 422.43498078912 410.73186714811 418.88298078912 407.91586714811 416.32298078912 C 405.09986714811 413.76298078912 401.19586714811 412.48298078912 396.20386714811 412.48298078912 C 391.53186714811 412.48298078912 387.88386714811 413.76298078912 385.25986714811 416.32298078912 C 382.63586714811 418.88298078912 381.32386714811 422.43498078912 381.32386714811 426.97898078912 C 381.32386714811 431.52298078912 382.63586714811 435.07498078912 385.25986714811 437.63498078912 C 387.88386714811 440.19498078912 391.53186714811 441.47498078912 396.20386714811 441.47498078912 C 401.19586714811 441.47498078912 405.09986714811 440.19498078912 407.91586714811 437.63498078912 Z M 445.35586714811 448.48298078912 C 441.25986714811 446.49898078912 438.10786714811 443.69898078912 435.89986714811 440.08298078912 C 433.69186714811 436.46698078912 432.58786714811 432.22698078912 432.58786714811 427.36298078912 C 432.58786714811 419.49098078912 434.87586714811 413.37898078912 439.45186714811 409.02698078912 C 444.02786714811 404.67498078912 450.47586714811 402.49898078912 458.79586714811 402.49898078912 C 463.91586714811 402.49898078912 468.44386714811 403.29898078912 472.37986714811 404.89898078912 C 476.31586714811 406.49898078912 479.38786714811 408.72298078912 481.59586714811 411.57098078912 C 483.80386714811 414.41898078912 484.90786714811 417.66698078912 484.90786714811 421.31498078912 C 484.90786714811 424.38698078912 483.93186714811 426.75498078912 481.97986714811 428.41898078912 C 480.02786714811 430.08298078912 477.25986714811 430.91498078912 473.67586714811 430.91498078912 L 444.77986714811 430.91498078912 C 444.77986714811 434.49898078912 446.04386714811 437.20298078912 448.57186714811 439.02698078912 C 451.09986714811 440.85098078912 454.82786714811 441.76298078912 459.75586714811 441.76298078912 C 464.93986714811 441.76298078912 469.35586714811 440.61098078912 473.00386714811 438.30698078912 C 475.05186714811 437.02698078912 476.65186714811 436.38698078912 477.80386714811 436.38698078912 C 478.89186714811 436.38698078912 479.94786714811 436.89898078912 480.97186714811 437.92298078912 C 482.05986714811 439.01098078912 482.60386714811 440.19498078912 482.60386714811 441.47498078912 C 482.60386714811 443.01098078912 481.96386714811 444.22698078912 480.68386714811 445.12298078912 C 477.99586714811 447.17098078912 474.85986714811 448.73898078912 471.27586714811 449.82698078912 C 467.69186714811 450.91498078912 463.85186714811 451.45898078912 459.75586714811 451.45898078912 C 454.25186714811 451.45898078912 449.45186714811 450.46698078912 445.35586714811 448.48298078912 Z M 469.83586714811 422.08298078912 C 470.92386714811 422.08298078912 471.69186714811 421.87498078912 472.13986714811 421.45898078912 C 472.58786714811 421.04298078912 472.81186714811 420.35498078912 472.81186714811 419.39498078912 C 472.81186714811 417.15498078912 471.54786714811 415.39498078912 469.01986714811 414.11498078912 C 466.49186714811 412.83498078912 463.08386714811 412.19498078912 458.79586714811 412.19498078912 C 454.50786714811 412.19498078912 451.13186714811 413.09098078912 448.66786714811 414.88298078912 C 446.20386714811 416.67498078912 444.97186714811 419.07498078912 444.97186714811 422.08298078912 L 469.83586714811 422.08298078912 Z"/></svg>